<mxfile host="app.diagrams.net" agent="Mozilla/5.0 (Windows NT 10.0; Win64; x64) AppleWebKit/537.36 (KHTML, like Gecko) Chrome/139.0.0.0 Safari/537.36" version="28.1.2">
  <diagram name="Page-1" id="G_DHNVvJtbX3vFWrZPj4">
    <mxGraphModel dx="1530" dy="842" grid="0" gridSize="10" guides="1" tooltips="1" connect="1" arrows="1" fold="1" page="1" pageScale="1" pageWidth="850" pageHeight="1100" math="0" shadow="0">
      <root>
        <mxCell id="0" />
        <mxCell id="1" parent="0" />
        <mxCell id="83VahnqBl9W_ZZEhjj48-30" value="" style="rounded=0;whiteSpace=wrap;html=1;fillColor=#d5e8d4;strokeColor=#82b366;" vertex="1" parent="1">
          <mxGeometry x="160" y="176" width="670" height="390" as="geometry" />
        </mxCell>
        <mxCell id="83VahnqBl9W_ZZEhjj48-9" value="" style="rounded=1;whiteSpace=wrap;html=1;fillColor=#dae8fc;strokeColor=#6c8ebf;" vertex="1" parent="1">
          <mxGeometry x="167.79" y="426" width="640" height="120" as="geometry" />
        </mxCell>
        <mxCell id="83VahnqBl9W_ZZEhjj48-3" value="Ubuntu Server&#xa;goegilles.fr&#xa;ip 164.68.118.174" style="text;whiteSpace=wrap;fontSize=15;fontStyle=1" vertex="1" parent="1">
          <mxGeometry x="167.79" y="177.01999999999998" width="132.21" height="40" as="geometry" />
        </mxCell>
        <mxCell id="83VahnqBl9W_ZZEhjj48-4" value="Sonarqube&lt;br&gt;PORT:9000" style="whiteSpace=wrap;html=1;aspect=fixed;" vertex="1" parent="1">
          <mxGeometry x="501" y="446" width="80" height="80" as="geometry" />
        </mxCell>
        <mxCell id="83VahnqBl9W_ZZEhjj48-5" value="PhpMyAdmin&lt;div&gt;PORT:8080&lt;/div&gt;" style="whiteSpace=wrap;html=1;aspect=fixed;" vertex="1" parent="1">
          <mxGeometry x="601" y="446" width="80" height="80" as="geometry" />
        </mxCell>
        <mxCell id="83VahnqBl9W_ZZEhjj48-6" value="Grafana&lt;br&gt;PORT:3&lt;span style=&quot;background-color: transparent; color: light-dark(rgb(0, 0, 0), rgb(255, 255, 255));&quot;&gt;000&lt;/span&gt;" style="whiteSpace=wrap;html=1;aspect=fixed;" vertex="1" parent="1">
          <mxGeometry x="401" y="446" width="80" height="80" as="geometry" />
        </mxCell>
        <mxCell id="83VahnqBl9W_ZZEhjj48-8" value="Mysql&lt;br&gt;&lt;div&gt;PORT:3306&lt;/div&gt;" style="whiteSpace=wrap;html=1;aspect=fixed;" vertex="1" parent="1">
          <mxGeometry x="300" y="446" width="80" height="80" as="geometry" />
        </mxCell>
        <mxCell id="83VahnqBl9W_ZZEhjj48-11" value="" style="shape=image;verticalLabelPosition=bottom;labelBackgroundColor=default;verticalAlign=top;aspect=fixed;imageAspect=0;image=data:image/png,iVBORw0KGgoAAAANSUhEUgAAALcAAACDCAYAAADPhYokAAAAAXNSR0IArs4c6QAAAARnQU1BAACxjwv8YQUAAAAJcEhZcwAADsMAAA7DAcdvqGQAADYMSURBVHhe7b13mCVHdf/9qep04+S8s7M5aoNWOaAcQIARSEQbDC8YDNgGjLH5YcAW/AgPfm2DsQ1+McYYyZYwIJKQECChrEVaaaVdbc5hdmYnz9zcqd4/qu/M7OzsalbaNKP7fZ5+pufe7q661d86deqcU6fEyMiIooIKZiDkxA8qqGCmoELuCmYsKuSuYMaiQu4KZixEZUJ5+mAIgWWcuDxRKFw/pPKiTgwVcp8mSCHIuj592RJCTPz2OFAghKC1KoZpCFTlbU0ZFXKfJiRtkx9vPMSf3r0RoXymym9fQU3C4b4PXMqs6jiuH068pIJj4MTHyApeEoSAoh/SPVyga8Rl0BMMuMc+Bj3JgCvoGSrQNVwgUEy5Q1SgUZHcpwkpx+Su9Z2883trsaobSS48d0yHDgIwDFAKVAjSRAChW2B461PUWSFrP34dHTVxShXJPWVUJPdphgACIcmbSfIln3zJo2ClyBdK5H1FwUiSz+fJh5KCkUBV5PVLRoXcZwgCAT274PBuhDTg0FbEYCdCCNi/ETJ9yAqvXxYq5D7TEBWt8FShQu4zChEd5fPyaUVknwxUyF3BjEWF3GcSKoAwsn6EgbaUAIS+tpxU8LJQIfc4SCFO2SGEGKdtRCa/dKM+wgBqWiBRqz+vbYdYElUh+MtChdwRBGBKgWWcmgNDYEdxJUJIhBAYjXMwmjoQKIzWBciaZv15+xJkui7Swiv690tFxYkDmIakL1vi73+7nb6cizlFG9z4q16sES0p2DNQ4JFdvVhOjERt/TjNQ4172rhzFTLce5iamMHaP7+m4sQ5QVTIDTimZHd/jlf98yP09+fAmHjFsSC0ZUOpKdAbkBLbMhAqxFD+i0hlTfKCktSl4qz92NUnldxCQMw0cIOQIJxC3achKuSOyL13IM+N33yUfUNF6ucuQZj2BNKKI86FEOR7DlAa7CHZNg+7qh4Vhse93ssOkevag5WuJdkyd5xOXZbW0f9CmwiV7zJ4YCe1tmDtx689aeQWAgSCF7pHWNaUImmb5L1g4mXTHhVyTyT3sEd89bVgxbU1YwJJR4koDcLdz6C6tyMXX4Zomg9eKRLGk9xjWKj+A4TbHkc0zEEuukRPJI8gdlkdUSANlFeg+MLD1FvBSYstUUBVzOShHb285btPcdOyZv7va5czpy5JtuTNKCNNZUI5GVSIyvQS7n4GwhDVf5Bw/wYQgrBrB+GhbWNBTgj91ysR7nkWlR1AuQWCXU9DqYDKDRLsWqeJXzb1qRCUIuzaTnhou37u/hdQffv153vXo4YPT0nTOVHYhmSk4HHb/Vvp689w+2M7ee23nuA323pIOSZyBjmQKuSeFAJ8D/LDWph6Jchn9Xju5qCUm8SLqCA/BIGvz3NDugOEvv58IlOF0M9xcyAkFLPgFfTn+RHw3aOLeLkQELMMvvH4bh7e1IlVU41dX8/mfb285T/Xcse6AyQdY8bEtFTIfSwIrXqMnUdNJaQ+JoM0xlSL8r2RCjMpxj9LyLEOI8edn0TETMnO3iz/8shOkAKjdTHG0lfhtM1hKJPlg99/ljuf7STpWKei+NOOY7ylCmYaBGAZBndv6KSzdwSrvhFR2wrSRM5dg9M6n1wuz0fvfp5HdvWRcsyJj5h2qJD7mCjr1NEEb7LziVDjrCVlt/ro55NAhUfp4aPnE9WYlwlDCkYKLj/d2AkCjNpZYNgQeCAkcs4qnJYOenuH+NiPN3B4pIhtTm96TO/an0pIA6yYPjcssBxNPtPR55ORz4qPqRlOXItLIfXniAm3RM8yHU1mK6bLQelzeXIlp21ItvVk2dw9gognEOkGUL7+MgxAGsjZK7Dq6li/o4uvPbITxzTKSta0xIwkt4pc6WnHJO2YpF7ksKO/eiKlUEJCuhEx7wJ9Xt+O6FiNUiBaFiJal6Ao68v6emXFEPPOh3QDWHHk/ItQdgIStcj5F6JMByX19QiBQiJaF+tnKRCzV0DDHBQCMfc8qG4mjKglhF6mVq7nix1px8Qy5BFmPcOUPNc5xFC2iJmsBidxZHBW4IOTxJi1FGFbfPvJvWzqGiZmHWO+MA0wI+3cphQcHCqwvnMIGTksjgfTEPRnXT5z7yYO532qF6xEWo4WtGEYeT3E2Dk6CKrUtZtSXyfx2Uux6pq1E0epyE4to+u19BYI/Ew/hf1bMKsbibcvjrg17vrx9wJ4LiN7NpEyQv7xjauoS9r4wYu/Li9UrGytZkFDEi8IEUKvvv/0Lzbx5Xuex5m7FDl7RWTZGYfodwY7nsLtPsDfvPE8PnfT8mlr/56R5E47Jv/19H7+n7vWY6gAwTF03gkQwgABpgoQk6kdExAIgxCJQYA8ll49DkpIfAwkIYaagkdQCHwMFKDCKVyP7kiep/jHW1fz59cuIpP3kEIHb33oh8/xnYe34yxajWxZqM2dE2HYqN49FLc/wyWLmvn1h64kbsujXPRKQagUgVJnLfFnJLlTjsn3nj7Ae/5nHZZtkUxXTaoij0KACkOKmSEAElU1CClf9J5iLotXLBBLVWE7seOHqArwXZdCdhjLjhFLpV/0+SoMyY8Mo1RIvKp2SnUqZDOUMnn+8a1rRsltSD12vfu/1/GDp/cSW3weonGunkxOhJBQylHc8jgNjuCBP72Stuo4w4Ujr41ZBknboDpmgwTXC866rFgzlty3rzvAe+5Yi10/C2fRBdGQHy0EMMwxq4c0QShUIY+79QlU6OOccxXCiSaBoT9mgw786HodLOXtfQ6/exf2ogsxm+ZptaTsUpemvpcxO3cw0Im7fS1m/WyshRdGKo7Szy3XKQz1OQpViuoUeDjLr0I4iUg9mqxOWpy6ezdQ7NzNV992AR+7ZozcAO+642nufmYfscUXIBo6jkFu7XENtj2JLAyxYlYdJT+gP++Nm0QLamImbdVxFjWmubCjlqsWNDCvPonrh7jBi49ipwMzckI5BkGowFUGpaFe3OE+XGFR6u/CzY7oz3sP4BYKuMJARS/PEwZusaC/UwZubkTfIy1Kw324Qz24wiCMEuUESlIK0NeXSriBotSzHzcIcd0Spd79uCH4SkvQEHBFVKehXv3c/m7c7DCuMHD7DuAW8rjC1DVS4AmJ6xb1s5TEzWVw+w/p3zPSjzvYiyssJgvwU0qbAqtiFiiFmozU4yEMhO0QeB7r9vSxsXOEQxmPQ5mAQ9mAQxmPzd0ZfrPpEN98YDPvvf13XP31h/n8/VsoeAGps8RGPsPJrSGEgP6DqKFDOo1Czx7I9unPu3dCYeSImAoBUMhA9w4tXDP90LNH3zvUiervRIz3UgoQKoDuHdqNHvqorm0I34dSHtW1HaEC/azyLULCYCdqsBMhTejdC5kehJCo7l2QH55QJwHFHHRFdcoNog7vRhgGDHWhBg7o3zMJlFJYhqQhZeuRwS1MvGQM5d7kpJCNHcTmrSC2YDWxBWuILzhPH/PXEFtwLrH5K3FmL8KsquHAYJbbfraBN3z7CR7a2YsZqUJnEq8IckPZpR39XGlMOJ/kNYiJ7vfyuRyzZkzE+GdNdu9EjHe/n6o6RXyVUrK4MQ2mQZgfiSwlk5SBVo1k/Wxk21JETQsiWYuwE2DHtA3eSSASNYiaFmTLAqy55xLrWI6ViPHoxk6+8fju0eV1ZxLHbpEKZhR8P+C8WTXUpeP42SEdtDVZhxBC6+Iq0POHwB9bvDz+KH8X+GAYiFQdoZBYVXH+4LwObEMSHG+CfRowya+rYCai5Icsb6ni4rn1qHyOcKBzkhElsuX7x5Lqx4JA9e0jyOa4bkkz1y5upOhP0XR5CvHKIXc5dkOUzyfGdByhEEeWi/ILeqmxJWULzXGuL0u38eej108kWGRNYUI9jlenCKFSxGMmf/Kq+SQTMfzevahsf2SZGQffA06AmKYFwz2U+jpJpOJ85Ir5VDkm/mQz29OMaU9uAViGPOIQhhw1f4GeUFHfAbWztDOkaQEq3aitI62LIV6NUuEomZRSEK+GtqX6mnQDNM1HBYFOu1A/GzX+5SlQ0oDWJRBLa9PcrGUow4ZYQj9HmEc4O3SdZkPdbFToQ9M8VFWzrkfrIkhUR8vWykUocNL6WQpI1UHzwqhOrVA/5wg7uyEFGJKYZWiXfMyiWPJJ2ib11XHCYp5w3wZwS5GuH0ntY+riEyF0LExuEL9rO8oN+MBl87hxcTM5d4Ln8wxh2pMbIFP0GC56jERHvuiNJmkXgE2AXVWPXVWLFXrYdY3YyRQWPk59K1YshkmgX6kAiwDbcbDrW7EIsBIpnLomLDzsqlr9LOEho1goQyhsiX6WbWMZAqehDcsUWJaN09CGbShMoUcIXScfu6purE61jdjJ9Lg6xXWdokmZRYjt2NgNrVgiwEokceqadZ3StdjV9djoOgEUvYDBTIkdPVnu2dTFl369lVu+8yS3fudJDg2MYDkxRFUT+oaoUwRTkdrRRNYwUENd+Ps34Y3keM257Xz2xqUESk1qjjwTmNZOnJgp2dqT4SN3P89wwaMcoWlIwUDeY3dfFtuyiScTR0jNoyD00J7PZgiVIplKI+WRgUcTIQSUCgWKxSKJZBLLdo7roRQCAt8nn81iWhbxZPK4zx+rU5YwDEmmp16nQrFIR20C2zQZKXoM50vkCy6gELE4dm0zonEuIlWvJ44K/dfN6/MoICx66tjDhY6XUcUMavAQbv8hVMnjhtWz+fbbzqO9JkHWnfquEaca05rc6ZjF3c8f5NbvrIUgBEPol6EAKXQ8slJHDO/HhEDbsUGrLlNoFRGtmBkNmHoxCBG50E99ndwgBCXAMDBsByOe1ol+UvUQryr3tvJdeolb4OnBPJygVgQ+yitCKUeYG8bLDqByBaxknA9fsYDP3rCUmoRFzo1Gv7ME05vccZtvPrqTD9+1DqumAaOxQ5u3zCgO+xUNvYJemI6e9ElTqxMqHJvsgiZ26IFbBGmiBg4Q9h3EoywoQpTv6t0ffB9CRSod58alLXz4igVcs7ARPwxf9qr8U4HpTe6EzT88sI1P/O8z2G1zMGYt0xLUSUy89JULpaIZL+MIPQGlvJ6yhgHh3ucIcsNUJWJ6Uqog7phUxSwWNCS5dE49Vy9q5PzZtVhSkHWD46pjZxLTntxffXA7H//+OuzWDoy2Jfpl2vHJPXwVTICAoKQtJqaFGuqmuGcj57TX829vPZe4ZeKHIdWORUPKIe2YOJZBGCoKXkB4lpK6jGlvLRlr3ojMKgr4P6u0v7MRQk8iPXd0YUU42AWB4q1r2nnV4mbWzKrhgtm1LGhIkbQN/FCRLXrkXP+sJzbTn9xKJ60UkeNjdAiOVsBUcHx4Jd1mwoDcAO7IIG1N1bzl3Fl4JZ+c65N3A4p+gB8qQlWOm5wemN7kDqE2biFMSRi4E7yOEy+uYAyROhL6ICVKBYQDh8DzefO57SxpSlE6C9znLxfTmtxKKWriFjHLQPnemDluKma2VyzGqSNEEYjZAdyhXpoaqnjPhbOPiASYzpjW5A5CRXtNnFTMJvBKKBVEcSEz5O2cCqgQvOKoOqJ8j7BvH8oPeM/Fczh3VjWFGSC1me7k9kNFa1WcmrgNnjcWJ6HKgVEVxfsICAF+SQeEiShF3PBh3OFBFsyq5wMXz8WfQXJhWpM7VIqUbTK3LqGHWXdcgsqprC4/CVAK/JCzJp7iuPC9yAsZxYeU8vi9+0BIPnLFfBY0JinOoDzd05vcoSIZM1nZWg1BiCrlx385/tJTgoKvKPqKuAluoCh4Z6s1oRynXRz7Hwh79uBns1y5uIV3nd9B0Tv1bXY6Ma3JraKRdvWsaoRlEOSHx+Ilxm99dwpQ8BXnN5jc+eo6Hn1zPfe8ro6b59kUfTXFLCmnC+X84YUx+79hoIa6KQ10ka5K8jevXkptwsI7S1atnyxMa3IDeH7ARXPqaKhO4OezKDc/FkNxivTukq9YXmvwi9fX8Hs1g2S3Pss1qQHuur6KdyywKXlnkfweJXbUFtKAQoagexcE8JErF3LdokayZ0kM9snEDCC3Yk5dkvNn10KhiMoNRXp3lA/kJKPsAP34mjS1pX7+9La/4xO3fZmntuwiZsBHV8aocgRnzQjvFXXQE+WQ1YCgewdeNsd157TxF9csohSEM2YSOR7TntyBUsRtgxuXtmjVMjMQLQ+TmtwnWXqHgGkKlteb7N5/kH0HDlCVTnLfbx5m/fr1NCUtahzJFFL6nXq4Rd0GIsp1CISHd+IO9NLeXMM/vnElNXFrdGHHTMO0JzeA54fctKyZpvo0fnYIVciMC+88udJbCPADxb7hgI5Zs2hqbCSTzbF23bMUshlGAkHGVTq0/EzCK0a5tyNiSwPVv5/S4QPEYg5fe9MqVs2qIVs6ue1zNmFaRwWWIQXELYP33fUs331kO07bHGTb0ijtmIhCYE8e24o+XNwsefD3ahjq3MujT6/nnMULOGflKt77UJb/3OoStybedToQqWNlYlMmto7T9g5uJ1CC//dNq/jEtYvJFadHANRLxYyQ3KECIQTvvKCDWDKOP3QYCiNRvr4wWtH9Msk9LoTWMWFtd8Cbf5Vhh93BZa+/BXfWKv74kRzf217izGQTi6wibnlFzXhiH8Tr3E7gKz5xwzL+/MqFFEozm9jMFMkNYAiBaQj+4I51/HDtriOlN4CdiPJ0nODPldEmTuWkluPuL3jaxp2yJSU/ZMQF2xRnQCURep7hFcftnRmZ/AY68Tq3EXgh779qEf/0xlVIKWasnj0eM0JyE00sbUPyocvmEU8l8Aa6ULl+Lb2V0m7nqRI7kngYNrh51MGNeAc24eohYvSyuCXwEQyUFIVAELPOELEDLzL3la0iZWIfxC0T+8pFfO2NqzCkOCuXhJ0KzBhyA+Rcn6sWNPCeS+YSlnyCw3u1xDUtLdl8dxL1JDKRSUMnqDF0JlSy/aj9G/C2PE5xzxZU737qwgy+OrLJTAG2BFMe/eRTi6g0v3SkgybKN6h6duMe3EboK95/5SL+8Y0rsaSg6Jc3I5n5mDFqSRlxy2DfYJ7X/vtath/oJdY6R+eiNiz94u24Jnv5V6sQAhd8F1XMo3L9hJkBvJFBKJXAtrh8UQufvG4JsfpmbvlNgYKnsCdmIjutiNQQvxiZPSO6GiZ4JdThnRR7O8G0+esblvLZG5cgERSDVw6xmYnkJkr5cNf6A7znjnV4nodl2yjDIhQGwrR1Ynlpgu8S+i6hVyIsFaBY0GQxDGY1pLl2SRtvPX8ONyxrxTE1m29bl+NzTxVwHHEGhr1I5/d1Z4wCEEazvKrcEOrwTkqD/VSlk3zp9Sv40OXzcYNwxrnWp4IZSW4pBTFT8sl7NvEPv9qKaSjM0EWEIQXX15wwTDBMhBTYpkFDVZxFTVUsba7h6iXNXDSnnnkN6YmPphgo3v7rEX662yPunC45GJE68PUoM1Fa+5429fXuJyiUWNbRwD+8cSU3LWsl7/pH7WfzSsGMJDeAbUoKbsAf/e96fvTUPpJJiz+6dD7ntlWRKXr4YUjCsZhVV0VjOk5DymFufRJjsrS+E9CT83jTrzI80aWIOxO/PZkQ2icaRKpTGG1JQjk3t0DlBlG9eygN9oFp8Y4LOvjCTcuZ35CatruQnSzMWHIrIGEZDBU83nfXs/xs3T46Wmv417eex+tXteuJph9ESXysE55b7xvxeMN9I2zoVydZgkfPUkrXMXDHJdGJFhgICaU8Yd8B3MEuVKHE/PZ6Pn3DEn7/vHYsKcnPoLjsl4oZS24iOiRtg8G8x/vueoaf/W4vVtLhb157Dn913RJsAzJFH6UUhmHoJJamecztNyZi74jLOx7IsfZQoHXwqd02CaIV/CpKURxGSd3VeFJHuy24edRgN/5gF342i5OM8wcXzOETVy9kWUsVBdc/K9IHnw2Y0eRmnATPlnw+9YtN/Ntvd4Af8vqL5vD51y5nTXsNnutTiCSdNAxMw8AwTUzDeFGid+cDPvJ4jh/scJEmOFMydI8js4pSUZTTB6swCs8amyiiFKqYgeFe/KHD+NkMwra5YVkrH79ah6wKqEjrCZjx5CYieMyUCOBba/fymXs2MdQzQk1zFX9x7WLed/FcWmvieF5AqZxJSQiklJiGgZQGhikRQiLE0RsZ+Qq++GyerzxXpOCGxGxxZKcoK77jyVw+wiD6PpLQomyr1usdVX4YNdKLO9yLKpTAMrl2SSsfunwer1nWTMoxyblnf/anM4FXBLnLMKQgYRs8tW+Az/1yC/c+dxC8kIVz63nfJXN587mzWNiQApTeT9EPUVEiGiE0YYWUSKG3xxZCIqSBKRTSFDzW6fHpdUUeOVgCQmKGGNu9OFRaIo+ScDyZRaTzK22nLuVQuUGC4V78fA78gGQqxnVLWnj3RXO4YWkTacek4OpkORVMjlcUuctIOSYFL+B/1x/knx7exXO7e8EPaG6p5nUrWnntsmYu6Khjdk1cJ5hXOo2EH4YEod4OOqL86DMFkLIEwx78zy6Xb20u8FyP3pjUMfUoMErmMpSKXOclVDFLmB8kyI4QFPPg+wjbZHFTNb+3so1bV7Vxfnstlilf0ea9E8ErktwAphTEHZO+TIkfbejkjqf389jufsgWwTaY01LNRXNqOX92LavbqpldE6chFaM2bkVJ7iPpjQAxrgmF9snnC3DPnjx37A55oqtEtlBEhgGEHqpURLl5wkKW0C0QlArg6o5gxWwWNaW5bG49Ny5p4or5DbRUx1FKka+oHyeEVyy5y7CifWNGCi6P7x3gnk1dPLa7nw2HhiHvanXCMamrjtFeFacp7dBUFaMp5ZCwJPXJGAnHJAwVQgj6c0VyRR9QFD2XfcMeD+7PM5yPlnt5bjRxVGBKHMukvTbJosYUF86u5dK59axsq6KtKo6UUPK0d/EV/ZJeIl7x5C7DlIK4ZaCArpECW7qzrDs4yLMHh9kzkGN3X5b+nAdeEDlVIv1ZTIiYGj85lAJMA8ORxC2TtC1pq0nSVpOgNWVzTmuaZU1VdNTGmV2bIG4ZCBEROpyZ6xpPJyrkngAhwJSSmClRgB+E9OdcDmdL9OdcDo0UOZwpMZArUvRDhtwx7VsBJlATkxgIapM29UmHhqRNTcKi2jFpSDrUJ21sM5qYAl4Q4gZqdPJawclBhdzHgUBbSQwpMKX+yzjLHpR37hprQhHp4mVxPnqqdMy5npgqPSEtb3hQwSlBhdwvAeO4e3xUyHtGcWIBFRVAJKdH/THHOybeWMFpRYXcFcxYVMhdwYxFhdwVzFhMS3KPhmPMIJTNghWcPEw7cscsg5ipD6e82fs0hgAStoFt6qAuy9D29QpePqaVKdAxJc8fGuau9Z1IIXn3he0sbkxN2zwcInL/P7ijl19s7qatJs67zm+nMeXgnRWZNKc3pg25HVNycKjAG77zFJv29gGCVy1r4X//8HxqE860XN2dsE0e39PHzd9ey9BwAYTgXZfN49/evBoQBBX/+8vCtBnXTSnY1J1hy+EM0hZgwbqDQxwcLumNVqchDEvyyM4+hgZyWDEDDHhy3yC9OXfUG1rBS8e0ITdRvL9lRIsGhMA2JWImkCD6TQiBZYiKzn2SMK3IPdMsJEzym8QUPfsVvDimFbkrqOBEUCF3BTMWFXJXMGNx1pBbRnHTo8cp8NhNLENOVHhfJsRpKGMylMs80ZIm1vWlPMN4kbInlnE6PbFnlNxS6KVd6ZiJJQV+oEYPhM4WlbTNl2XqM6J0DmnHREabNQWhwg9CpIC0Y5K0DYyXWUbSNkmOlhHiR4sSTClIOyZxyzjpRBdCezctQxCGipj14kmEpNBe3rRjYhkiagt9KHVibR6zDBA6M0As+n0qIvyRba6zBpTbPOWYJOyT3x4TccacOAnbAAXPHxrmiX2DbOwa5sBAfnR1S03cZuWsai6eXcMFs2upqY5zz3OdvPm/nsL3XEIF6WScBz50Oee2Vo1mjCpDRGWU/JD1nUM8uW+I5zuH6M0WEZFZsSHlsLKtmos7arlgdg0JyyTv+VNeuyiFdsTkSj5PHxhk7f5BNneN0JstjaZWa62Os6K1isvn1rG6rRrLkOTdAAWkkzZfvG8zn/nJBuxoy7zlbTXc+/5LaUnHcI/jmLINiW1KHt3Vx38/e5B9AznesmY2f7BmFr7SRJ2IRLRGdOvhER7dM8iGQ8PsH8yhlG7zqpjFijbd5hfNqaM2YZF3g0nTSMQsye/2DfL1h3cyWPB45wUdvH1NO44pKXoB6w4O8cTeQTYcGqIvW8IQeiVSfTLGspYqrpxfxyVzaglC8EJ1SqT5aSe3IQQJx+D5zmG++cRefrLxEIeHCtGylQlVEZJE3OKSObX85TWLEEJwy38+RcktHZfcRrTY98m9/XztkV38Znsvg5nSuMW7owWAEKSTNlfOr+ejVy7g+sVNlPwANzh2g6syuQzB/Vt7+NfHd/PI7n4yuVL0+KPLaKiK8eqlTXz0igVc2FFL3gtIxK0TJreIJF9/1uVfH9/NVx/eydBIEUKFk7D56R9dwg1LmsmN24JPCkHSMdjUNcI3Ht/LTzd10TmQG1tVMfZ0EIJ4zOLiObV84NK53LKyDSmh4I0lrjelJOt63Phvj/Pcjj4wBKmqGPd/4HIsU/D3v93Br7b1MpQ9RpsDVSmHP7tyAX91zUJMIU+JN/a0kts0BLaUfG/dfj597xa6+rNgaMeFIHpzamzfGaUUvgLlhaSSNhd01LHuwCBF1yMI1aTktgyJKQX//OhOvvDr7QwMF8AUWHLc2sbRMrSE88OojJTDX1yziE9euwhDSop+cBTBFRA3Ddwg4Iu/2cbXHtpFIe8iLKm3DjlGGV6owFc01ia47dXL+KNL5mA7Fl+8b9OUye2YWlo/sL2X2365hcd29ILU6ZqVAi9X4ktvXsOnXrOMTM6FqKPHTMkPnu/kkz/fxL6ezDHaXNdbKUWgIPRCpGXw3kvm8uXXnUNt3BrNRRizDLYdznD1vzxCf76EZQj8EK6Y38Cu/jydvVmwJrQ5avSvUnrvUOk43Pu+S7hhcQM59+TnOTxtOrchBJaU/N1vd/CB7z9L10AW2zH0iwGdvqwU4LrlvwGBAksKbMcg7/o8tP0wrucfU1crL+L9/K+28vEfb2QgU9RlRJF2Y88e+1v2etoxg2zR5XO/eIE/u/t5vCDEMY5unpipSf/BH6zny/dupuB52LFI71UTy/BxXZ1zxDYktmPQO5znz370PP/z7AGQxlGdZzJIoXeLGMx7fOqeTbzpP57ksR09mJbAidrPK3lU1SS4fF49QTmpp9D1/edHd/PuO9axrzcz2uagdzQbq2uI6/oESrej7eid3779yE5+//an6coUiVtH7pViRUk/BZrIj+zspXMojx3TbX5Ee5TGygoinodeQMkPdGKjUwDjU5/61G0TPzzZEEAyZvHdp/bx8Z9sJAhC7KihXC8gDGFJaw03Lm/mxuWtLG+rxrENenIubsFDGnJ0tl1GqBSObfHuCztoSTsEoSJpm3z14Z185ucvIKSWdACu6xNKycpZNVy/tJlrl7awtLUKwzQ5nC3huz7SkFhSoITg2d395MOQVy9tJhy3FtKIrDh/+bON/McjuzAcU3ccBZ7rY1gma2bX8upzWrh2aQvzm9IgBd0jJQI/xDAkpiHx8y6xRIw3r2nnsZ29PLD1MIZlEISKxnSMPzh/NinHJFB6ohazDO7Z1MX77nyGHz5zAFfp9hNC4AYhYSngksXNfOtta7h8fsPoKJaKmfzw+UP86Y+ep+h62NFGPq4XEAaKhS1VXLu0ieuXtbCyvYa4bdKbcykVPIQRWTcMwY5DI+weyvO65S3Ypp4I9udcbl+3n6zrj76X8jvSnU23x4Vz6rl+WTNXLW5icUsVpmkykHfxPcXNq9v44OVzMSLBcLJxWtSSuGWwuXuE1377STr7smONXPKY15Tm/1y/lJtXtlIXt5FCEKIoeiFP7x/k7x/czn0bOzFs8whye0F4hFpiSMFju/t53beeIFMs4ZgGYUS6NXPr+eR1i7huUTPVMZ1/W0W7nz26q4+vPLCNx3f0YtoGhhA6wlDBf//hRbz9/A4yRQ+AdNzie0/t4z13PI0QWgXylSJwA65a0swnrl3MFfPrSUSWg1ApRoo+92zp5ku/3sb2g4O6p/uKz75xNZ9/wyq+dO8GPv3jo9WStqo4liXpHMzzxV9t5Ttr91LyAqwocY9SmkCJpM2fX7WIj161kMaUrfONR5PH3X05bvr3J9h9eGRcm/vMaUrxiWuWcMuqNhqSus2VUpQCxTMHB/nqb3fw0w2dox0+CBW+H/Llm1fxf65bjB8qth7OcMM3H6U7U8QeN8IF49rjL6P2iFvmaJ1Hih7rO4fIuQGXz6sn5Zi4p2gjqlMuuaXQSdk/e98WHtnSjeWYiIjYly1s4u73XsYNy1uwhMALFV4YEoZ6X5vFTWluPbeNUqB4fFcfQo6lBh4vuWdVxSgGIX/2o+fZtH8A2zG19HADblo1i++/+2Iumd+AhMhEp01TlpSc01bNm1a20ZV1Wb9/ECn1KOF7AftHirxpZRtxy8CUgp5MiT/54XMcHi5gWQahUgS+4gNXLOA77zifVbNqUKHCD9G/Qykcy+CCObW8dmkzWV/hKXjDmnb+8ppFpBMWj+zo4cEJkvt9l8ylKmHx4+c6ec+dz3Dfhk5CKSJprVW40A+5YkkT337b+bz30rmYUlCI9FatAgq+8Ott/HJD57g297lgXgN3v/cSXruyDUcKvEC3R6i0GrOoMcWtq9uRhuSh7T0gdM6WIFRs7y/wmqVNNNfE6BkpHSW5Q6UIAsUHXrWA//z9C1g5q5owam8/VIRKYZuSxU1pljandT8/RZYSTofO7ZiSzd0j/HzzYYQpkZGasLClhjveeSELm1Jk8q4eXiMTVhglr8kUPSSCv7t5Je+8ZB7+MSYdwpas3dvPb7YfRkZ7U3tuyMULG/nO28+jJe2Qybt448rQE0lFpuBRFbP4p1tWc/2yFrwyQSyDdfsHuW9LNzFL4lgG927uZkPnMKalm813A9507iz+6U2rSdommYI3+hL179AjTCbvMbsmzrfeuoYnPnY133zLGuqSdpRo/kjYpuTQUIE/+cFzvPW7v2NL5xB23MIyJKFSuCWfqrjN//29Ffz8/Zdz9aIGsgXviB2BbVOyoy/HjzZ2gal3XXO9gEWtNfz3uy5kaUsV2Zw7mqIZpSfvYajIFH3CUHHbTcv52DWLCfyQELBMyYHeDD94vhOiFM4T4bshb1jZxlffuJKEZYxrD93eYdTm2ZJPpnjqd4A4peQW0STvsT0D9GaKGIYOwBfS4JPXL2FeU5pMQQ/5x0LJ11LlMzcspr0xjTdh1Y0AEJLfbO/By7ujUiYes/jktYtoqY6THWcWmww5N6AmYfM3r1lGOmHhB6HWHf2Q32zvwQ8UXhDwwI5eCENkpLrUpWN86volxCzjKDv7RJT8kIIfYEhB0Q8mXVxhGoJDQ3ne+r2n+MbDOwgJsaPOqjcQEdy4so37/vgyPvPqZcRMOaqGlFFu88f39tM5lMeUEj9UWKbJF163nMWzagmDkIRtTHokI6cQUvDF1y3nwnn1eF6gR0wV8vDuAYoF7wgVEcALFI01cf76+iUkbJ0i+kzj1JJbaKI9e2gEIiuH74esaK/l9cubKbnHJ10ZBS9gSWOaN6xsQ/lH9nYpBEHJZ/3BIb3FBhD4IefPruWahQ0Up1CGAPIln4s7arl6YSNhuQNJwZaeLLlI0mzrzY2ZKb2A1yxr5rz2miNsyseDivJ8q2MILCkE/dkSO3syWLaBGf0epcD3Av7sigXc+/7LuWxuPdmid5SpEPSPEaCz1Lo+MiJhMmby3KER/u5XW/jygztf9PjS/dv41tr9JGyt0gBgGOzoGeHgcOEoD6byQ66Y38Ca9pqzZvuSU0xuKLgBPVlXK3QAgeK89loak7Z2s08BZTJc2lGL4ZhHeMykELh+wOFMEaSIrhWsakuTciwme/+TIQgVtm1y2fx6KBNQwEDeY7Dg0pd1GciVIJoYIeDCOXUYpta9TxYMqRdhEKlnRO0ohOC5g8McHMoTKlXer+EoSAQlP+Bw1iuPaxhSkC95fPlXW/nkTzbwmZ+/8KLHp3++kT//0fM8trsPK7JsSaEYKAYMFgOMcXqJUgoMyaVz67BNPXc4G3BKyQ0QoFDjf6zSJirDkNHuBFNDqBT1STtq6LH7hNBDfn9OdyCFbui5dcnILDX1MlCK5nQMzKhuAvKuT7ak9cNyzItCgZRUOeZYzzuJ8EOF54cESozqpaYpeWhrF++98xn6ci7JyJV+FIS+3/WDMrdHYUmFZYBlqCkc+rqJ+1f5oRYE41H+rzpuHVXmmcQpJ7cA1IQfHKoj+DklCAR5LyAoewAiiaGFhiBhGaCimbcKGSq4Jy5RhSDv+hCqUcfCaNTbxFwpSuuZJ/tl+kGIlAZ/ctUi/uXWVaQcbSKUgBWzeHBTNx/7yQaKQXjM1BYiUgnHQ6G9gp4XnNDhun50BIQln7QtqU+Yk9qlJ/vsTGLy1jlJUApipkF1zNIzIgBDsLlriKGChyGmVrwAhBRs6c7glbzR6LOUJXAMbZFpSDmalEJAoNh8OKtJMdm0fhIIISBUbOoaiZ6jZ3HVCZ1juyZmkY5boLQqRBCytScDY9ECLxt+qKhNOnzzzav5+i2r+PBVi/jcTcsgsutLwIwZ3Pm7ffz1PS9owk/wooaR46cmbo+yTSntIV0xu56VcxpZ0XHix7L2ei5Z3MzXbl7BwoYURf/s0KuPh6mx6yVCobAMycK6GEgtaaUpeHpvPy90jRC3p5aAxjIkw3mX+7b2AKEmU6BY1FRNc8rBtgwWN6bQfl0QhuTJvQNsOZw5ymV8LDiG5OBgnl/v6IHyPUoxuyZGlWNSk7CYVRUbE0+m5DfbDtM7UjrCifFyEIaK1uo4N69oJQgV+YLHR69cyGdevZTQ0zuXGUIgLcnXH97J3z24Ayfy3o4i6nxLGhNavVKKQIUIIfmH3zuHdR+7kt9+6LITPh75k8v55Qcv521r2o87KT6bcHLeyjGglCb4ZfPqceLaRW5KSb7g8vcP7aDkBZPGb4yHEOA4Jt975gBP7OzFtIxR2+xFs2upjtsAXLu4CSwdXWaZgsODeb75xB6U0jHVx4OUAss2+NfHd7GzK4MVkQIFr5pbR8w2idsmV86vh8gmbFoGL3QO860nd2NHccvHgxSCpK1j1xPH6XCh0pulhqG29Zf8gM+9ZjkfvmYxQcnXvy9aHPC5+7fwnaf3RbHR+n4VTY5fNa+eVMLGj9o8myvx/z2xFymgLmFFcdvHPuqTNg1VMRrSzmjMu2VIip4O150OOD6zTgJKfsjFs2u5qKOWMDLjmbbBT587wFce3I5jGXovmIk3RsFGqYTNPRsPcdu9mxFCaXNioEikHF6/vAlQlNyA6xY3srytejRoyDAF331qP998ci9xxxzdZHUibFOSjFvc/ru9fO2hnRhmeSsPbbd97fIWvfggCHnd8hYaauJ4gUJGneIrD2zn7mcPkIzbk0pwEUXR2YbgwZ39/Pvje/nd/oFj6ssT4QUKL1T8/c0redvFc/FL/qhTxfN8Pv7jjfzshW6SMW0PBygFIavbqrlmURPKG2vzu9fv429+uWU0LUag9IKK8QfjwiW++8Qe7tvcPeqICcITmp6fcZxy93uooCZu4ZiCn27pIQxCLUmF4KHtvXRniqyaVU1TysExpd5dzJQ4liRb8vmPJ/fykbufZzBbGA22CtyQd140hw9eNi9yHyvqkg4S+MUL3RAF/fh+wG939pFzQ1a1VVOXsI8sw5SMFD3+6aGd/OXPNlL0fCzTQCkIXZ8PXrGQP7xwDoVIJeioTdA1UmTtjl6kaWAYgkLJ55fbeogZkmXNaWoSNo4xVoZtSQ4NF/jc/Vv4+E828pNn9vPjLT2cP7uWhS3VPDqJ+3184BSRLh4zDa5b1MQzXSPs7BrBMCWGIckXPR7e1cclc+pY2JiOvI6QdExqYiY/3qwjKS1Dt/mjO3s5MFRkRWsVLenYaHs4UZv7geKu9Qd5z53PcPsTe7hz/UGq4hZXzG8YrY9pyCMCp3QcDbx+RSsXdNQe4S09kzjl5CYKpjmnpYruTJFndg8gDB2voICn9/Rzz9ZeDgwXGcz7dA7l2NKT4ccbu/nsfZv51hN7KHr+WBRhyWdxey3fvHU1dSl71JERhIpzZ9WwrS/Ppv2DSFNiGtrm++iOHu7f3kvncImhos+BgRwbuzP8aGMXn7l3M7c/tRc/1HEPAF7R46JFTXz9ltU4pvbwEalIa2ZV88jeQQ72ZjAsQxPMDbh/Sw8P7elnIK9t4vsGcmzoznD7Mwf51D2buHfDIUIUlm2QGynixCzesHo2j+/sOW5UIJH090JFdcziygUNPLxngM7+3CjBhzMlHts/yLULG2mrjuNGy7qWNKXoL3is3dUH0b4+CsGze/r56ZaeqM09OofybO3J8KvtfXzu/q189eGdjORKWI5J4AZ05XzesaadWBRPM13IfVqiAgEc02Ck6PLeO9fz8+cOYIxbt+h6gbYXmpKYqYN5Al+BCjEtvesXgFsKmN2Q4r9+/3yuXtR4lFs9bhkcGi7wlv96mqd29GDGonV9Cjwv0DERpoFjQClQ2tupQixL66yhUnilgCWzavj+uy9i9axqRor+EepM2jF5rnOYd9z+NFsPDmI5uoxA6cg5kEhD4JiCYgDKDwA1NuqEiqAUctvNK/jb1x87KnCyxQoA6ZjJ+oPDvOW/nmJX9/BYtF/R59LFzfzg3RfRkNSd3jYkBT/gwz98njvX7kXaYtTr6fqhtmAZkpgl8AO9vpQw0J2m/G7yHlcsb+We91+CFbnyy4sVylGBptT3/9vbzuOPL5/3oiEVpwtTU/xOAop+QE3c5ttvX8M7LplLEIDrBiilX7xlCUyhnRcChWWCHS0idYMQt+CzvL2G2995AdcsbprU5V3wAtprEtzxzvN5zapZ+B64foAQ+lmWKTAI8fwQY1wZZUeQVwq5dHEzd/3hRaxuqyYzgdgAmZLPue3V3PmuC7l4YSNeKaAUmRxty8AytSfP9UMMQixTf66iThwEcMtFHfzRxXMBvYHqeNODtkQcW95kij5r2mv497edS0tdCtfTHcB0TJ7c1s1PNh7CieJRSkFIyjb5xq2ree8VCwgDMdbmptRtLnWbK0IsQ2FHQseL2nzBrBr+9tVLiVvm6AhGZHI8wo8QBUWdTTgtagnjhtaqmMVNS5tpTDvsGCjQP1IiKEfrRdeWJy+Brwi8kHQqxrsvmce/vHk1a2bVHCWxx8MLQprSDq9b3kLMMdnal2MkWyIIomi9yKKgFASBDtEMfEVdVYIPX7mAr71xJQsbU8ctw/VDOmoSvG55M64QbO/Pk8u6BKEijHyiE8sIfWhvSPFX1y/mCzctpzZuYQjY1DXCvc93EkgBXkhbXZL3XjwHJ1IBJoMXhCxpStNRG+e+rT0Uyw6rIOTW8zpY016D6+sYaS9UJCyDVy9tprUqzu6hAj0jxdE2L48N+vaozX1FKhnjbRd08PVbVnFRR+1Ra1SLfsB//G4fuVxJP0PBuy7qYEVr1StPLRkPU0pilmRHb4afbz7Mr7b1sL0vz0hBh6UaUpB0bNrSNlfMr+PmFa1cOqcOIcSUo81sQ2IZgo1dw/x882Ee2N7DnsEiIwU3Mo8J0jGb9mqHqxY0cPM5LVzYUYsfqinn+3aijVLXHRjkxxu7eWhnL52ZErmSXuNpSkFV3GZubZwbFjfyphWtLGuuohRoiW0ZgsG8xwd+sJ7fbuulKm7x+ZuW8e4L51AKguPakqUQJGzJvz+5l7/95VZyRZ/XnNPMN249l6RtHCVFzWjR9J7+LD/bdJj7t/WwtS/HcBQKLAUkYzbNSZtXza/nlhWtXDa3TselTGhzGVlrvv7oLr7ywA5KXsgbVrbwtZtXknSOlPBnEmeE3ESSvDxTz5Q8enMuh4aLFLwA25A0pRwaUw61cWuU1MeSZMeCENpDakjBSNGjN+vSlSlS8jSx2qpiNCQdquN6cUPBOz6hJoMUgpilzYxDBY/DmZJeuhYoHEvQmo7TmLKpilm644yzE6uoE+Zdn41dI9QlbJY0pbTFY0I5k0EKgW0KthzOMFLwWdlWhWMax13Z4pgS25BkSj79OZfOkQIFVwuUppRDU9qhNm4ihTxum0shMA3Bpq4MeddnVVs1timPW/bpxhkj93gY5R16oyB4FXnr/FARHCMHx4lARDZpczSrkg6oCiJHyUkpQ+g4FFMKZORkUZEO7Yd6IcCxijCjSMAwVJSCE9vzXQhwDAMp9bwhmKLUNKK2MCe0edn2PZU6lIVHec4y1bJPF84KcldQwanAabOWVFDB6UaF3BXMWFTIXcGMRYXcFcxYVMhdwYxFhdwVzFhUyF3BjEWF3BXMWFTIXcGMxf8P6mNQ8QizP0wAAAAASUVORK5CYII=;" vertex="1" parent="1">
          <mxGeometry x="190" y="451" width="97.79" height="70" as="geometry" />
        </mxCell>
        <mxCell id="83VahnqBl9W_ZZEhjj48-14" value="Opened Port&lt;div&gt;3306&lt;/div&gt;" style="rounded=0;whiteSpace=wrap;html=1;" vertex="1" parent="1">
          <mxGeometry x="310" y="166" width="60" height="50" as="geometry" />
        </mxCell>
        <mxCell id="83VahnqBl9W_ZZEhjj48-16" value="Opened Port&lt;div&gt;80&lt;/div&gt;" style="rounded=0;whiteSpace=wrap;html=1;" vertex="1" parent="1">
          <mxGeometry x="380" y="166" width="60" height="50" as="geometry" />
        </mxCell>
        <mxCell id="83VahnqBl9W_ZZEhjj48-17" value="Opened Port&lt;div&gt;443&lt;/div&gt;" style="rounded=0;whiteSpace=wrap;html=1;" vertex="1" parent="1">
          <mxGeometry x="451.0999999999999" y="167.01999999999998" width="60" height="50" as="geometry" />
        </mxCell>
        <mxCell id="83VahnqBl9W_ZZEhjj48-46" style="edgeStyle=orthogonalEdgeStyle;rounded=0;orthogonalLoop=1;jettySize=auto;html=1;exitX=0.5;exitY=1;exitDx=0;exitDy=0;entryX=0.5;entryY=0;entryDx=0;entryDy=0;" edge="1" parent="1" source="83VahnqBl9W_ZZEhjj48-19" target="83VahnqBl9W_ZZEhjj48-6">
          <mxGeometry relative="1" as="geometry" />
        </mxCell>
        <mxCell id="83VahnqBl9W_ZZEhjj48-47" style="edgeStyle=orthogonalEdgeStyle;rounded=0;orthogonalLoop=1;jettySize=auto;html=1;exitX=0.5;exitY=1;exitDx=0;exitDy=0;" edge="1" parent="1" source="83VahnqBl9W_ZZEhjj48-19" target="83VahnqBl9W_ZZEhjj48-4">
          <mxGeometry relative="1" as="geometry" />
        </mxCell>
        <mxCell id="83VahnqBl9W_ZZEhjj48-48" style="edgeStyle=orthogonalEdgeStyle;rounded=0;orthogonalLoop=1;jettySize=auto;html=1;exitX=0.5;exitY=1;exitDx=0;exitDy=0;entryX=0.5;entryY=0;entryDx=0;entryDy=0;" edge="1" parent="1" source="83VahnqBl9W_ZZEhjj48-19" target="83VahnqBl9W_ZZEhjj48-5">
          <mxGeometry relative="1" as="geometry" />
        </mxCell>
        <mxCell id="83VahnqBl9W_ZZEhjj48-50" style="edgeStyle=orthogonalEdgeStyle;rounded=0;orthogonalLoop=1;jettySize=auto;html=1;exitX=0.5;exitY=1;exitDx=0;exitDy=0;entryX=0.5;entryY=0;entryDx=0;entryDy=0;" edge="1" parent="1" source="83VahnqBl9W_ZZEhjj48-19" target="83VahnqBl9W_ZZEhjj48-49">
          <mxGeometry relative="1" as="geometry" />
        </mxCell>
        <mxCell id="83VahnqBl9W_ZZEhjj48-19" value="Server NGINX" style="rounded=0;whiteSpace=wrap;html=1;" vertex="1" parent="1">
          <mxGeometry x="380" y="257.02" width="122.21" height="60" as="geometry" />
        </mxCell>
        <mxCell id="83VahnqBl9W_ZZEhjj48-22" value="" style="endArrow=classic;startArrow=classic;html=1;rounded=0;entryX=0.5;entryY=1;entryDx=0;entryDy=0;" edge="1" parent="1" source="83VahnqBl9W_ZZEhjj48-8" target="83VahnqBl9W_ZZEhjj48-14">
          <mxGeometry width="50" height="50" relative="1" as="geometry">
            <mxPoint x="110" y="506" as="sourcePoint" />
            <mxPoint x="160" y="456" as="targetPoint" />
          </mxGeometry>
        </mxCell>
        <mxCell id="83VahnqBl9W_ZZEhjj48-24" value="" style="endArrow=classic;startArrow=classic;html=1;rounded=0;entryX=0.5;entryY=1;entryDx=0;entryDy=0;exitX=0.25;exitY=0;exitDx=0;exitDy=0;" edge="1" parent="1" source="83VahnqBl9W_ZZEhjj48-19" target="83VahnqBl9W_ZZEhjj48-16">
          <mxGeometry width="50" height="50" relative="1" as="geometry">
            <mxPoint x="692.21" y="266" as="sourcePoint" />
            <mxPoint x="742.21" y="216" as="targetPoint" />
          </mxGeometry>
        </mxCell>
        <mxCell id="83VahnqBl9W_ZZEhjj48-27" value="redirect :80 to :443" style="text;whiteSpace=wrap;" vertex="1" parent="1">
          <mxGeometry x="550" y="226" width="120" height="40" as="geometry" />
        </mxCell>
        <mxCell id="83VahnqBl9W_ZZEhjj48-57" style="edgeStyle=orthogonalEdgeStyle;rounded=0;orthogonalLoop=1;jettySize=auto;html=1;exitX=0.55;exitY=0.95;exitDx=0;exitDy=0;exitPerimeter=0;entryX=0.5;entryY=0;entryDx=0;entryDy=0;" edge="1" parent="1" source="83VahnqBl9W_ZZEhjj48-28" target="83VahnqBl9W_ZZEhjj48-16">
          <mxGeometry relative="1" as="geometry" />
        </mxCell>
        <mxCell id="83VahnqBl9W_ZZEhjj48-60" style="edgeStyle=orthogonalEdgeStyle;rounded=0;orthogonalLoop=1;jettySize=auto;html=1;exitX=0.55;exitY=0.95;exitDx=0;exitDy=0;exitPerimeter=0;" edge="1" parent="1" source="83VahnqBl9W_ZZEhjj48-28">
          <mxGeometry relative="1" as="geometry">
            <mxPoint x="480" y="166.00000000000023" as="targetPoint" />
          </mxGeometry>
        </mxCell>
        <mxCell id="83VahnqBl9W_ZZEhjj48-61" style="edgeStyle=orthogonalEdgeStyle;rounded=0;orthogonalLoop=1;jettySize=auto;html=1;exitX=0.55;exitY=0.95;exitDx=0;exitDy=0;exitPerimeter=0;entryX=0.5;entryY=0;entryDx=0;entryDy=0;" edge="1" parent="1" source="83VahnqBl9W_ZZEhjj48-28" target="83VahnqBl9W_ZZEhjj48-14">
          <mxGeometry relative="1" as="geometry" />
        </mxCell>
        <mxCell id="83VahnqBl9W_ZZEhjj48-28" value="Internet" style="ellipse;shape=cloud;whiteSpace=wrap;html=1;" vertex="1" parent="1">
          <mxGeometry x="311" y="36" width="180" height="80" as="geometry" />
        </mxCell>
        <mxCell id="83VahnqBl9W_ZZEhjj48-33" value="" style="endArrow=classic;html=1;rounded=0;exitX=1;exitY=0.5;exitDx=0;exitDy=0;" edge="1" parent="1">
          <mxGeometry width="50" height="50" relative="1" as="geometry">
            <mxPoint x="502.21000000000004" y="282.02" as="sourcePoint" />
            <mxPoint x="512.21" y="206" as="targetPoint" />
            <Array as="points">
              <mxPoint x="542.21" y="282.02" />
              <mxPoint x="542.21" y="206" />
            </Array>
          </mxGeometry>
        </mxCell>
        <mxCell id="83VahnqBl9W_ZZEhjj48-40" value="" style="endArrow=classic;startArrow=classic;html=1;rounded=0;entryX=0.5;entryY=1;entryDx=0;entryDy=0;" edge="1" parent="1" target="83VahnqBl9W_ZZEhjj48-17">
          <mxGeometry width="50" height="50" relative="1" as="geometry">
            <mxPoint x="482" y="257" as="sourcePoint" />
            <mxPoint x="650" y="416" as="targetPoint" />
          </mxGeometry>
        </mxCell>
        <mxCell id="83VahnqBl9W_ZZEhjj48-41" value="grafana.goegilles.fr" style="text;whiteSpace=wrap;fontSize=9;" vertex="1" parent="1">
          <mxGeometry x="441" y="396" width="120" height="40" as="geometry" />
        </mxCell>
        <mxCell id="83VahnqBl9W_ZZEhjj48-42" value="dev.goegilles.fr" style="text;whiteSpace=wrap;fontSize=9;" vertex="1" parent="1">
          <mxGeometry x="741.1" y="396" width="120" height="40" as="geometry" />
        </mxCell>
        <mxCell id="83VahnqBl9W_ZZEhjj48-43" value="db.goegilles.fr" style="text;whiteSpace=wrap;fontSize=9;" vertex="1" parent="1">
          <mxGeometry x="641" y="396" width="120" height="40" as="geometry" />
        </mxCell>
        <mxCell id="83VahnqBl9W_ZZEhjj48-44" value="sonarqube.goegilles.fr" style="text;whiteSpace=wrap;fontSize=9;" vertex="1" parent="1">
          <mxGeometry x="541" y="396" width="120" height="40" as="geometry" />
        </mxCell>
        <mxCell id="83VahnqBl9W_ZZEhjj48-49" value="Covoiturage&lt;div&gt;PORT:1234&lt;/div&gt;" style="whiteSpace=wrap;html=1;aspect=fixed;dashed=1;dashPattern=8 8;strokeWidth=1;" vertex="1" parent="1">
          <mxGeometry x="701" y="446" width="80" height="80" as="geometry" />
        </mxCell>
        <mxCell id="83VahnqBl9W_ZZEhjj48-51" value="Docker runs many containers. In future in will also run Covoiturage app" style="text;whiteSpace=wrap;strokeColor=default;dashed=1;dashPattern=1 1;strokeWidth=2;rounded=1;" vertex="1" parent="1">
          <mxGeometry x="695" y="302" width="120" height="70" as="geometry" />
        </mxCell>
        <mxCell id="83VahnqBl9W_ZZEhjj48-52" value="Nginx uses ReverseProxy to redirect subdomains to ports. For example db.goegilles.fr internally redirects to localhost:8080" style="text;whiteSpace=wrap;dashed=1;dashPattern=1 1;strokeColor=default;rounded=1;strokeWidth=2;" vertex="1" parent="1">
          <mxGeometry x="694" y="181" width="130" height="110" as="geometry" />
        </mxCell>
      </root>
    </mxGraphModel>
  </diagram>
</mxfile>
